<svg id="Layer_1" data-name="Layer 1" xmlns="http://www.w3.org/2000/svg" viewBox="0 0 389.64 141.75"><title>teche</title><path d="M80.59,56.87,74.86,161.76c-.11,1.89-.66,2.84-1.66,2.84H64.9q-8.46,0-12.08-4.16T49.2,148.53q0-2.84.23-8.5t.68-13.33q.45-7.65,1-16.63t1.13-18.14q.6-9.17,1.13-18.24t1-16.82H30.19c-1.11,0-1.66-.88-1.66-2.65L29,43.63a31.08,31.08,0,0,1,.68-4.82,13.25,13.25,0,0,1,1.73-4.25,9.32,9.32,0,0,1,3.1-3,8.74,8.74,0,0,1,4.6-1.14h67.46a2.71,2.71,0,0,1,1.66.57,2.47,2.47,0,0,1,.75,2.08l-.6,11.15a19.25,19.25,0,0,1-2.49,9.17q-2.19,3.5-9,3.5Z" transform="translate(-28.53 -24.73)"/><path d="M138.54,166.49a43.73,43.73,0,0,1-13.21-2.08,29.41,29.41,0,0,1-11.77-7.18A38.12,38.12,0,0,1,105,143.62q-3.33-8.51-3.32-21.36,0-4.73.6-11.34a90.27,90.27,0,0,1,2.34-13.61,83,83,0,0,1,4.83-13.89A46.69,46.69,0,0,1,117.56,71a37.31,37.31,0,0,1,29-12.28A34.54,34.54,0,0,1,159.82,61a22.9,22.9,0,0,1,8.75,6.15,24.2,24.2,0,0,1,4.83,9,38.78,38.78,0,0,1,1.51,11,35.05,35.05,0,0,1-2.79,14.74A31.31,31.31,0,0,1,164.87,112a34,34,0,0,1-9.88,6.33,67.92,67.92,0,0,1-10.72,3.5,60,60,0,0,1-9.73,1.51q-4.46.28-6.87.28a30.74,30.74,0,0,0,.83,7.09,20.58,20.58,0,0,0,2.49,6.14,13.59,13.59,0,0,0,4.38,4.35,12.21,12.21,0,0,0,6.64,1.7,10.16,10.16,0,0,0,6.11-1.6,15.08,15.08,0,0,0,3.55-3.59c.9-1.33,1.68-2.52,2.34-3.6a3,3,0,0,1,2.64-1.6,13.27,13.27,0,0,1,2.64.47,10.81,10.81,0,0,1,3.85,2,14,14,0,0,1,3.47,4.16,13.73,13.73,0,0,1,1.51,6.81,16.35,16.35,0,0,1-2.72,9.45,20.92,20.92,0,0,1-7,6.42,32.94,32.94,0,0,1-9.58,3.59A48.56,48.56,0,0,1,138.54,166.49Zm2.87-82.6a7.65,7.65,0,0,0-5.66,2.37,19.63,19.63,0,0,0-3.93,5.95,36.71,36.71,0,0,0-2.41,7.94c-.56,2.9-1,5.67-1.28,8.31q9.35-.18,15.16-4a12.11,12.11,0,0,0,5.81-10.77,12.62,12.62,0,0,0-1.88-6.8A6.37,6.37,0,0,0,141.41,83.89Z" transform="translate(-28.53 -24.73)"/><path d="M222,141.35a17.83,17.83,0,0,0,7.62-1.51,29.26,29.26,0,0,0,5.66-3.4q2.41-1.89,4.08-3.41a4.77,4.77,0,0,1,3-1.51c2.32,0,3.47,1.89,3.47,5.67a21.08,21.08,0,0,1-.45,3.69,48.66,48.66,0,0,1-1.21,4.91q-.75,2.55-1.58,4.82A16.75,16.75,0,0,1,241,154c-.51.64-1.39,1.64-2.65,3a26,26,0,0,1-5.05,4.16,38.38,38.38,0,0,1-7.4,3.68,26.1,26.1,0,0,1-9.35,1.61,35.27,35.27,0,0,1-11.85-2.18,27.59,27.59,0,0,1-11.09-7.56,41.59,41.59,0,0,1-8.22-14.55q-3.26-9.16-3.25-23,0-4.92.53-11.25a82.4,82.4,0,0,1,2.19-13,85.75,85.75,0,0,1,4.45-13.23,40.72,40.72,0,0,1,7.47-11.62,34.56,34.56,0,0,1,26.86-11.34,33.81,33.81,0,0,1,12.75,2.17,24.6,24.6,0,0,1,8.83,5.86,24.19,24.19,0,0,1,5.21,8.6A31.73,31.73,0,0,1,252.17,86q0,10.22-5.13,15t-14.49,4.82a7,7,0,0,1-3.09-.47c-.55-.32-.83-1-.83-2.18q0-4.53-.15-8.13a27.49,27.49,0,0,0-.83-6,8.13,8.13,0,0,0-2-3.78,5.39,5.39,0,0,0-3.92-1.33,8.82,8.82,0,0,0-7.47,3.78A27.14,27.14,0,0,0,210,96.84a58.16,58.16,0,0,0-1.81,11.06q-.37,5.67-.37,9.45,0,13.43,3.39,18.71T222,141.35Z" transform="translate(-28.53 -24.73)"/><path d="M310.72,141.16c.31-4.16.63-8.5,1-13s.65-8.88.9-13,.48-7.87.68-11.15.3-5.67.3-7.18A19.91,19.91,0,0,0,311.71,88c-1.26-2.58-3.7-3.88-7.32-3.88q-7.25,0-11.7,8.51t-5.21,22.68c-.2,2.64-.45,6.33-.75,11s-.6,9.52-.91,14.37-.57,9.2-.82,13-.38,6.21-.38,7.09a4.75,4.75,0,0,1-.68,3,3.5,3.5,0,0,1-2.64.76h-5.43a20.06,20.06,0,0,1-7.63-1.23,11,11,0,0,1-4.67-3.5,13.42,13.42,0,0,1-2.42-5.57,38.65,38.65,0,0,1-.68-7.66q0-4.15.53-11.62t1.43-20.6q.92-13.14,2.12-33.55t2.56-50.65c.1-2.77.35-4.41.76-4.92s1.1-.57,2.41-.57h5.89a18.82,18.82,0,0,1,7.54,1.33,12.45,12.45,0,0,1,4.83,3.59,13.72,13.72,0,0,1,2.57,5.2,24.65,24.65,0,0,1,.75,6.14q0,3.4-.53,12.66t-1.28,21.74q4.53-9.45,10-13t14-3.59a32.1,32.1,0,0,1,11,1.7,16.76,16.76,0,0,1,7.77,5.76,27.66,27.66,0,0,1,4.61,10.59A73.39,73.39,0,0,1,339,93c0,2-.16,5.48-.46,10.39s-.68,10.52-1.13,16.82-.9,12.89-1.36,19.75-.83,13.14-1.13,18.81q-.15,2.08-.3,3.21a4,4,0,0,1-.53,1.7,1.8,1.8,0,0,1-1.13.76,9,9,0,0,1-2.12.19H326a22.59,22.59,0,0,1-7.85-1.14,10.52,10.52,0,0,1-4.68-3.21,12.33,12.33,0,0,1-2.34-5.2,33.62,33.62,0,0,1-.68-7.08c0-1.26,0-2.46.08-3.59S310.62,142.17,310.72,141.16Z" transform="translate(-28.53 -24.73)"/><path d="M369.58,164.6q-8.46,0-12.08-4.16t-3.62-11.91q0-3.78.45-12.94t1.21-20.89q.75-11.72,1.51-24.76t1.51-24.57q.75-11.52,1.21-20.22t.45-11.91c0-1.89.8-2.84,2.41-2.84h53.12a2.67,2.67,0,0,1,1.66.57,2.44,2.44,0,0,1,.76,2.08l-.6,11.15a19.25,19.25,0,0,1-2.49,9.17q-2.19,3.5-9,3.5H385.27l-1.51,26.65h21.43a2.68,2.68,0,0,1,1.66.56,2.47,2.47,0,0,1,.76,2.08L407,97.31a19,19,0,0,1-2.49,9.17q-2.19,3.49-9,3.5H382.4l-1.66,28.16h33.2a2.44,2.44,0,0,1,2.42,2.64l-.61,11.16a19.1,19.1,0,0,1-2.48,9.16q-2.2,3.51-9,3.5Z" transform="translate(-28.53 -24.73)"/></svg>